<svg xmlns="http://www.w3.org/2000/svg" xmlns:xlink="http://www.w3.org/1999/xlink" width="360" height="221" viewBox="0 0 360 221">
    <defs>
        <path id="prefix__a" d="M0 0H360V221H0z"/>
    </defs>
    <g fill="none" fill-rule="evenodd">
        <mask id="prefix__b" fill="#fff">
            <use xlink:href="#prefix__a"/>
        </mask>
        <g mask="url(#prefix__b)">
            <g transform="translate(49 5)">
                <circle cx="124.561" cy="125.697" r="83.591" fill="#F2F2F2" fill-rule="nonzero"/>
                <g fill-rule="nonzero" transform="translate(187.1 11.146)">
                    <path fill="#A0616A" d="M14.462 180.008H19.663V191.154H14.462zM54.957 180.38H60.158V191.526H54.957z"/>
                    <path fill="#2C2B3D" d="M60.716 185.767l-6.316-.744-16.347-75.417-17.833 75.789-6.316-.743c-1.042-34.294 2.004-68.6 4.644-97.152l37.71-3.158c7.104 28.134 7.396 63.149 4.458 101.425z"/>
                    <path fill="#A0616A" d="M56.794 88.804s-8.783 9.165-3.819 11.456c4.964 2.292 8.02-10.31 8.02-10.31l-4.201-1.146zM11.84 89.547s-8.783 9.165-3.818 11.456c4.964 2.292 8.019-10.31 8.019-10.31l-4.2-1.146z"/>
                    <circle cx="38.61" cy="12.825" r="10.402" fill="#A0616A"/>
                    <path fill="#A0616A" d="M50.685 34.56l-18.576 1.857c1.717-7.73 2.133-14.951 0-21.177h13.003c-.707 5.188 1.934 12.01 5.573 19.32z"/>
                    <path fill="#CFCCDF" d="M55.886 88.43c-6.941 8.348-21.527 5.557-38.266-.372 4.75-15.505 4.013-31.863-.255-48.77-.48-1.876.46-3.825 2.229-4.615l13.63-6.058 5.2 1.114 8.917-2.229 12.657 2.59c2.126.435 3.616 2.358 3.507 4.526-1.059 20.752-2.932 39.956-7.62 53.813z"/>
                    <path fill="#CFCCDF" d="M59.601 95.116l-3.344-5.572 6.316-23.777L59.23 30.1c4.426.442 8.057 3.697 8.98 8.048l5.073 23.913c.765 3.605.306 7.362-1.304 10.676L59.6 95.116zM16.134 91.03l-7.617 1.3 4.857-47.54c.096-4.85 3.085-9.172 7.59-10.974l2.414 31.393-7.244 25.82z"/>
                    <path fill="#2C2B3D" d="M17.685 195.048l-14.018 2.463c-.637.111-1.292.023-1.876-.253-.94-.443-1.597-1.324-1.755-2.35-.158-1.027.205-2.065.967-2.77l6.005-5.557 1.566-2.736c.894-1.609 2.53-2.667 4.364-2.823 2.677-.186 3.561 1.851 3.001 5.677 2.034 1.496 2.355 1.266 3.724-.747l.621 6.307c-.145 1.406-1.206 2.545-2.599 2.79zM58.18 195.048l-14.018 2.463c-.636.111-1.292.023-1.876-.253-.939-.443-1.596-1.324-1.754-2.35-.158-1.027.204-2.065.966-2.77l6.006-5.557 1.565-2.736c.894-1.609 2.53-2.667 4.365-2.823 2.677-.186 3.56 1.851 3 5.677 2.034 1.496 2.355 1.266 3.724-.747l.622 6.307c-.146 1.406-1.207 2.545-2.6 2.79zM30.351 6.898c4.69-2.682 9.384-.968 14.088 6.351l.961 7.797c7.059-6.687 6.702-15.813-1.214-19.525-.778-.365-1.532-.78-2.38-.633-3.474-1.865-7.8-.703-9.872 2.652-1.462.253-3.56 3.159-3.484 4.641l1.901-1.283z"/>
                    <ellipse cx="43.997" cy="13.383" fill="#A0616A" rx="1.3" ry="1.672"/>
                </g>
                <g>
                    <path fill="#1D1A12" d="M6.898 48.402c2.06 3.82 6.43 5.459 6.43 5.459s1.031-4.553-1.028-8.371c-2.06-3.82-6.43-5.459-6.43-5.459s-1.031 4.553 1.028 8.371z" transform="translate(0 154.418)"/>
                    <path fill="#F3431C" d="M8.313 47.146c3.718 2.237 5.15 6.68 5.15 6.68s-4.596.816-8.314-1.421C1.432 50.168 0 45.725 0 45.725s4.596-.816 8.313 1.421z" transform="translate(0 154.418)"/>
                    <path fill="#1D1A12" d="M11.508 23.213L9.231 19.419 30.48 1.206 85.12 1.206 85.12 6.518 65.389 27.767 42.622 32.32z" transform="translate(0 154.418)"/>
                    <path fill="#CCC" fill-rule="nonzero" d="M94.525 11.894L94.525 0.021 87.372 0.021 87.372 3.765 85.12 1.206 66.906 19.419 63.871 22.454 60.077 37.632 66.906 54.328 101.815 54.328 101.815 20.178z" transform="translate(0 154.418)"/>
                    <path fill="#F2F2F2" fill-rule="nonzero" d="M9.231 19.419H66.90599999999999V54.328H9.231z" transform="translate(0 154.418)"/>
                    <path fill="#1D1A12" d="M46.796 30.423H58.938V41.047H46.796z" transform="translate(0 154.418)"/>
                    <path fill="#CCC" fill-rule="nonzero" d="M31.239 30.043H41.863V54.327H31.239z" transform="translate(0 154.418)"/>
                    <path fill="#1D1A12" d="M19.097 33.838L19.097 30.043 14.544 30.043 14.544 33.838 18.717 33.838zM18.717 36.873L14.544 36.873 14.544 40.668 19.097 40.668 19.097 36.873zM22.132 30.043H26.685000000000002V33.836999999999996H22.132zM22.132 36.873H26.685000000000002V40.666999999999994H22.132zM83.223 34.217L83.223 30.423 78.669 30.423 78.669 34.217 82.843 34.217zM82.843 37.253L78.669 37.253 78.669 41.047 83.223 41.047 83.223 37.253zM86.258 30.423H90.81099999999999V34.217H86.258zM86.258 37.253H90.81099999999999V41.047H86.258zM121.014 23.193L118.738 19.398 139.987 1.185 194.626 1.185 194.626 6.497 174.895 27.746 152.129 32.299z" transform="translate(0 154.418)"/>
                    <path fill="#CCC" fill-rule="nonzero" d="M204.032 11.873L204.032 0 196.878 0 196.878 3.744 194.626 1.185 176.413 19.398 173.378 22.434 169.583 37.611 176.413 54.307 211.322 54.307 211.322 20.157z" transform="translate(0 154.418)"/>
                    <path fill="#F2F2F2" fill-rule="nonzero" d="M118.738 19.398H176.413V54.307H118.738z" transform="translate(0 154.418)"/>
                    <path fill="#1D1A12" d="M156.303 30.402H168.445V41.026H156.303z" transform="translate(0 154.418)"/>
                    <path fill="#CCC" fill-rule="nonzero" d="M140.746 30.023H151.37V54.307H140.746z" transform="translate(0 154.418)"/>
                    <path fill="#1D1A12" d="M128.604 33.817L128.604 30.023 124.05 30.023 124.05 33.817 128.224 33.817zM128.224 36.852L124.05 36.852 124.05 40.647 128.604 40.647 128.604 36.852zM131.639 30.023H136.192V33.817H131.639zM131.639 36.853H136.192V40.647H131.639zM192.729 34.196L192.729 30.402 188.176 30.402 188.176 34.196 192.35 34.196zM192.35 37.232L188.176 37.232 188.176 41.026 192.729 41.026 192.729 37.232zM195.765 30.402H200.31799999999998V34.196H195.765zM195.765 37.232H200.31799999999998V41.025999999999996H195.765z" transform="translate(0 154.418)"/>
                    <path fill="#1D1A12" fill-rule="nonzero" d="M216.747 31.769H217.747V54.327H216.747z" transform="translate(0 154.418)"/>
                    <path fill="#FF5029" fill-rule="nonzero" d="M222.588 34.644c.037 7.887-5.513 14.307-5.513 14.307s-5.608-6.368-5.644-14.256c-.037-7.888 5.513-14.308 5.513-14.308s5.608 6.369 5.644 14.257z" transform="translate(0 154.418)"/>
                    <path fill="#1D1A12" fill-rule="nonzero" d="M112.811 31.198H113.811V53.756H112.811z" transform="translate(0 154.418)"/>
                    <path fill="#F3431C" d="M118.653 34.072c.036 7.888-5.514 14.308-5.514 14.308s-5.608-6.368-5.644-14.256c-.037-7.888 5.513-14.308 5.513-14.308s5.608 6.369 5.645 14.256z" transform="translate(0 154.418)"/>
                    <path fill="#000" fill-rule="nonzero" d="M118.653 34.072c.036 7.888-5.514 14.308-5.514 14.308s-5.608-6.368-5.644-14.256c-.037-7.888 5.513-14.308 5.513-14.308s5.608 6.369 5.645 14.256z" opacity=".1" transform="translate(0 154.418)"/>
                    <path fill="#1D1A12" fill-rule="nonzero" d="M105.387 31.198H106.387V53.756H105.387z" transform="translate(0 154.418)"/>
                    <path fill="#F3431C" d="M111.229 34.072c.036 7.888-5.514 14.308-5.514 14.308s-5.608-6.368-5.644-14.256c-.037-7.888 5.513-14.308 5.513-14.308s5.608 6.369 5.645 14.256z" transform="translate(0 154.418)"/>
                    <path fill="#1D1A12" fill-rule="nonzero" d="M1.058 53.757L243.918 53.757 243.918 54.328 1.058 54.328z" transform="translate(0 154.418)"/>
                </g>
                <g>
                    <path fill="#2F2E40" fill-rule="nonzero" d="M28.125 92.88H38.95c0 2.359-1.913 4.272-4.273 4.272h-2.278c-2.36 0-4.273-1.913-4.273-4.273z" transform="translate(114.034)"/>
                    <path fill="#F3431C" d="M41.478 83.314v-3.97c0-4.798 5.218-9.336 8.602-12.574 4.771-4.56 7.28-10.688 7.28-17.866 0-13.13-10.626-23.786-23.757-23.822-13.13-.037-23.815 10.559-23.888 23.69v.132c0 6.922 2.616 13.464 7.28 17.866 3.366 3.178 8.601 7.726 8.601 12.573v3.97M38.831 91.022H28.243c-.513 0-.928-.416-.928-.93 0-.512.415-.928.928-.928h10.588c.513 0 .929.416.929.929 0 .513-.416.929-.929.929z" transform="translate(114.034)"/>
                    <path fill="#E6E6E6" fill-rule="nonzero" d="M8.905 27.01c-.224 0-.441-.08-.61-.229L.319 19.82c-.25-.218-.366-.554-.302-.88.064-.325.297-.592.612-.7.314-.107.661-.038.911.18l7.977 6.963c.291.255.394.663.258 1.026-.136.362-.482.602-.87.602zM56.846 27.01c-.388 0-.734-.24-.87-.602-.136-.363-.033-.771.258-1.026l7.977-6.963c.386-.336.972-.296 1.31.09.337.386.297.972-.089 1.31l-7.976 6.962c-.169.148-.386.23-.61.23z" transform="translate(114.034)"/>
                    <path fill="#F3431C" d="M41.478 87.725H25.597c-.513 0-.93-.416-.93-.929 0-.513.417-.929.93-.929h15.88c.514 0 .93.416.93.93 0 .512-.416.928-.93.928z" transform="translate(114.034)"/>
                    <path fill="#FFF" fill-rule="nonzero" d="M33.537 84.242c-.246 0-.482-.097-.657-.272-.174-.174-.272-.41-.272-.656V62.138c0-.513.416-.928.93-.928.512 0 .928.415.928.928v21.176c0 .246-.098.482-.272.656-.174.175-.41.272-.657.272z" transform="translate(114.034)"/>
                    <path fill="#FFF" fill-rule="nonzero" d="M33.537 63.067c-3 0-6.685-2.715-6.84-2.83-.267-.198-.407-.523-.369-.853.039-.33.25-.614.555-.745.304-.132.656-.09.922.107.923.685 3.753 2.464 5.732 2.464s4.81-1.779 5.733-2.464c.411-.306.993-.22 1.3.191.305.412.22.994-.192 1.3-.155.115-3.84 2.83-6.84 2.83z" transform="translate(114.034)"/>
                    <path fill="#E6E6E6" fill-rule="nonzero" d="M33.537 17.739c-.513 0-.929-.416-.929-.929V.93c0-.513.416-.929.93-.929.512 0 .928.416.928.929V16.81c0 .513-.416.929-.929.929z" transform="translate(114.034)"/>
                </g>
            </g>
        </g>
    </g>
</svg>
